<mxfile host="Electron" agent="Mozilla/5.0 (Windows NT 10.0; Win64; x64) AppleWebKit/537.36 (KHTML, like Gecko) draw.io/27.0.5 Chrome/134.0.6998.205 Electron/35.3.0 Safari/537.36" version="27.0.5">
  <diagram name="Seite-1" id="_XNX29uaiqwkyX6SMw9O">
    <mxGraphModel dx="733" dy="873" grid="1" gridSize="10" guides="1" tooltips="1" connect="1" arrows="1" fold="1" page="1" pageScale="1" pageWidth="827" pageHeight="1169" math="0" shadow="0">
      <root>
        <mxCell id="0" />
        <mxCell id="1" parent="0" />
        <mxCell id="kqIVMSamLvJIFL_Xu7VX-13" value="Mitarbeiter_ID" style="edgeStyle=orthogonalEdgeStyle;rounded=0;orthogonalLoop=1;jettySize=auto;html=1;" parent="1" source="kqIVMSamLvJIFL_Xu7VX-3" edge="1">
          <mxGeometry relative="1" as="geometry">
            <mxPoint x="420" y="640" as="targetPoint" />
          </mxGeometry>
        </mxCell>
        <mxCell id="kqIVMSamLvJIFL_Xu7VX-3" value="Dim Mitarbeiter" style="shape=parallelogram;perimeter=parallelogramPerimeter;whiteSpace=wrap;html=1;fixedSize=1;" parent="1" vertex="1">
          <mxGeometry x="110" y="490" width="120" height="60" as="geometry" />
        </mxCell>
        <mxCell id="kqIVMSamLvJIFL_Xu7VX-11" style="edgeStyle=orthogonalEdgeStyle;rounded=0;orthogonalLoop=1;jettySize=auto;html=1;entryX=0;entryY=0.5;entryDx=0;entryDy=0;exitX=1;exitY=0.5;exitDx=0;exitDy=0;" parent="1" source="kqIVMSamLvJIFL_Xu7VX-4" target="kqIVMSamLvJIFL_Xu7VX-7" edge="1">
          <mxGeometry relative="1" as="geometry">
            <Array as="points">
              <mxPoint x="310" y="640" />
              <mxPoint x="310" y="680" />
            </Array>
          </mxGeometry>
        </mxCell>
        <mxCell id="kqIVMSamLvJIFL_Xu7VX-4" value="&lt;b&gt;Employee Absence&lt;br&gt;&lt;/b&gt;Namespace: Microsoft.HumanResources.Absence" style="shape=parallelogram;perimeter=parallelogramPerimeter;whiteSpace=wrap;html=1;fixedSize=1;" parent="1" vertex="1">
          <mxGeometry x="10" y="610" width="240" height="60" as="geometry" />
        </mxCell>
        <mxCell id="kqIVMSamLvJIFL_Xu7VX-10" style="edgeStyle=orthogonalEdgeStyle;rounded=0;orthogonalLoop=1;jettySize=auto;html=1;entryX=0;entryY=0.5;entryDx=0;entryDy=0;exitX=1;exitY=0.5;exitDx=0;exitDy=0;" parent="1" source="kqIVMSamLvJIFL_Xu7VX-5" edge="1" target="kqIVMSamLvJIFL_Xu7VX-7">
          <mxGeometry relative="1" as="geometry">
            <mxPoint x="420" y="720" as="targetPoint" />
            <Array as="points">
              <mxPoint x="310" y="720" />
              <mxPoint x="310" y="680" />
            </Array>
          </mxGeometry>
        </mxCell>
        <mxCell id="kqIVMSamLvJIFL_Xu7VX-5" value="&lt;b&gt;Cause of Absence&lt;/b&gt;&lt;div&gt;Namespace: Microsoft.HumanResources.Absence&lt;/div&gt;" style="shape=parallelogram;perimeter=parallelogramPerimeter;whiteSpace=wrap;html=1;fixedSize=1;" parent="1" vertex="1">
          <mxGeometry x="10" y="690" width="240" height="60" as="geometry" />
        </mxCell>
        <mxCell id="kqIVMSamLvJIFL_Xu7VX-14" style="edgeStyle=orthogonalEdgeStyle;rounded=0;orthogonalLoop=1;jettySize=auto;html=1;" parent="1" source="kqIVMSamLvJIFL_Xu7VX-7" target="kqIVMSamLvJIFL_Xu7VX-8" edge="1">
          <mxGeometry relative="1" as="geometry" />
        </mxCell>
        <mxCell id="kqIVMSamLvJIFL_Xu7VX-7" value="Create ASFT" style="shape=step;perimeter=stepPerimeter;whiteSpace=wrap;html=1;fixedSize=1;" parent="1" vertex="1">
          <mxGeometry x="360" y="640" width="120" height="80" as="geometry" />
        </mxCell>
        <mxCell id="kqIVMSamLvJIFL_Xu7VX-8" value="ASFT" style="shape=parallelogram;perimeter=parallelogramPerimeter;whiteSpace=wrap;html=1;fixedSize=1;" parent="1" vertex="1">
          <mxGeometry x="670" y="650" width="120" height="60" as="geometry" />
        </mxCell>
        <mxCell id="kqIVMSamLvJIFL_Xu7VX-16" value="Start &amp;amp; Enddatum" style="edgeStyle=orthogonalEdgeStyle;rounded=0;orthogonalLoop=1;jettySize=auto;html=1;entryX=0.5;entryY=1;entryDx=0;entryDy=0;exitX=1;exitY=0.5;exitDx=0;exitDy=0;" parent="1" target="kqIVMSamLvJIFL_Xu7VX-7" edge="1" source="kqIVMSamLvJIFL_Xu7VX-17">
          <mxGeometry relative="1" as="geometry">
            <mxPoint x="240" y="900" as="sourcePoint" />
          </mxGeometry>
        </mxCell>
        <mxCell id="kqIVMSamLvJIFL_Xu7VX-17" value="Dim Zeitpunk" style="shape=parallelogram;perimeter=parallelogramPerimeter;whiteSpace=wrap;html=1;fixedSize=1;" parent="1" vertex="1">
          <mxGeometry x="110" y="820" width="120" height="60" as="geometry" />
        </mxCell>
      </root>
    </mxGraphModel>
  </diagram>
</mxfile>
